<svg width="30" height="30" viewBox="0 0 30 30" fill="none" xmlns="http://www.w3.org/2000/svg">
<g clip-path="url(#clip0_870_5946)">
<path d="M25.6066 4.39342C22.7735 1.56023 19.0066 0 15 0C10.9934 0 7.22654 1.56023 4.39342 4.39342C1.56023 7.22654 0 10.9934 0 15C0 19.0066 1.56023 22.7735 4.39342 25.6066C7.22654 28.4398 10.9934 30 15 30C19.0066 30 22.7735 28.4398 25.6066 25.6066C28.4398 22.7735 30 19.0066 30 15C30 10.9934 28.4398 7.22654 25.6066 4.39342ZM1.76473 15C1.76473 7.70203 7.70203 1.76473 15 1.76473C18.3321 1.76473 21.38 3.00287 23.7092 5.0427L5.04264 23.7092C3.00287 21.38 1.76473 18.3321 1.76473 15ZM15 28.2353C11.6679 28.2353 8.62002 26.9971 6.2908 24.9573L24.9574 6.29074C26.9971 8.61996 28.2353 11.6679 28.2353 14.9999C28.2353 22.298 22.298 28.2353 15 28.2353Z" fill="#4A90E2"/>
<path d="M12.3073 11.5372L11.4786 12.3659C11.1354 12.7091 11.1354 13.2656 11.4786 13.6088C11.8219 13.952 12.3783 13.952 12.7216 13.6088L13.5503 12.7801C13.8935 12.4369 13.8935 11.8804 13.5503 11.5372C13.207 11.194 12.6506 11.194 12.3073 11.5372Z" fill="#4A90E2"/>
<path d="M8.9928 14.8517L8.16417 15.6803C7.82093 16.0235 7.82093 16.58 8.16417 16.9233C8.50741 17.2665 9.06388 17.2665 9.40712 16.9233L10.2358 16.0946C10.579 15.7514 10.579 15.1949 10.2358 14.8517C9.89251 14.5084 9.33604 14.5084 8.9928 14.8517Z" fill="#4A90E2"/>
<path d="M5.67786 18.1661L4.84923 18.9948C4.50599 19.338 4.50599 19.8945 4.84923 20.2377C5.19247 20.5809 5.74894 20.5809 6.09218 20.2377L6.92081 19.4091C7.26405 19.0658 7.26405 18.5094 6.92081 18.1661C6.57763 17.8229 6.0211 17.8229 5.67786 18.1661Z" fill="#4A90E2"/>
<path d="M20.1791 4.90782C19.8359 4.56458 19.2794 4.56458 18.9362 4.90782L18.1075 5.73646C17.7643 6.0797 17.7643 6.63616 18.1075 6.9794C18.4508 7.32265 19.0072 7.32265 19.3505 6.9794L20.1791 6.15077C20.5224 5.80759 20.5224 5.25106 20.1791 4.90782Z" fill="#4A90E2"/>
<path d="M15.6217 8.22272L14.7931 9.05135C14.4498 9.3946 14.4498 9.95106 14.7931 10.2943C15.1363 10.6375 15.6928 10.6375 16.036 10.2943L16.8647 9.46567C17.2079 9.12243 17.2079 8.56596 16.8647 8.22272C16.5214 7.87954 15.965 7.87954 15.6217 8.22272Z" fill="#4A90E2"/>
<path d="M10.6495 23.1378L9.82091 23.9664C9.47767 24.3097 9.47767 24.8661 9.82091 25.2094C10.1642 25.5526 10.7206 25.5526 11.0639 25.2094L11.8925 24.3808C12.2357 24.0375 12.2357 23.481 11.8925 23.1378C11.5493 22.7946 10.9928 22.7946 10.6495 23.1378Z" fill="#4A90E2"/>
<path d="M17.2785 16.5084L16.4498 17.3371C16.1066 17.6803 16.1066 18.2368 16.4498 18.58C16.7931 18.9233 17.3495 18.9233 17.6928 18.58L18.5215 17.7514C18.8647 17.4081 18.8647 16.8517 18.5215 16.5084C18.1782 16.1652 17.6217 16.1652 17.2785 16.5084Z" fill="#4A90E2"/>
<path d="M13.964 19.8229L13.1354 20.6515C12.7921 20.9947 12.7921 21.5512 13.1354 21.8944C13.4786 22.2377 14.0351 22.2377 14.3783 21.8944L15.2069 21.0658C15.5502 20.7226 15.5502 20.1661 15.2069 19.8229C14.8637 19.4796 14.3072 19.4796 13.964 19.8229Z" fill="#4A90E2"/>
<path d="M25.1508 9.8795C24.8075 9.53626 24.2511 9.53626 23.9078 9.8795L23.0792 10.7081C22.736 11.0514 22.736 11.6078 23.0792 11.9511C23.4225 12.2943 23.9789 12.2943 24.3222 11.9511L25.1508 11.1225C25.494 10.7792 25.494 10.2227 25.1508 9.8795Z" fill="#4A90E2"/>
<path d="M20.5929 13.194L19.7643 14.0226C19.421 14.3658 19.421 14.9223 19.7643 15.2655C20.1075 15.6088 20.664 15.6088 21.0072 15.2655L21.8359 14.4369C22.1791 14.0937 22.1791 13.5372 21.8359 13.194C21.4926 12.8507 20.9361 12.8507 20.5929 13.194Z" fill="#4A90E2"/>
</g>
<defs>
<clipPath id="clip0_870_5946">
<rect width="30" height="30" fill="white"/>
</clipPath>
</defs>
</svg>
