<svg width="202" height="40" viewBox="0 0 202 40" fill="none" xmlns="http://www.w3.org/2000/svg">
<g clip-path="url(#clip0_417_226)">
<path fill-rule="evenodd" clip-rule="evenodd" d="M25.5557 11.6853C23.9112 10.5865 21.9778 10 20 10V0C23.9556 0 27.8224 1.17298 31.1114 3.37061C34.4004 5.56823 36.9638 8.69181 38.4776 12.3463C39.9913 16.0008 40.3874 20.0222 39.6157 23.9018C38.844 27.7814 36.9392 31.3451 34.1421 34.1421C31.3451 36.9392 27.7814 38.844 23.9018 39.6157C20.0222 40.3874 16.0008 39.9913 12.3463 38.4776C8.6918 36.9638 5.56823 34.4004 3.37061 31.1114C1.17298 27.8224 0 23.9556 0 20H10C10 21.9778 10.5865 23.9112 11.6853 25.5557C12.7841 27.2002 14.3459 28.4819 16.1732 29.2388C18.0004 29.9957 20.0111 30.1937 21.9509 29.8078C23.8907 29.422 25.6725 28.4696 27.0711 27.0711C28.4696 25.6725 29.422 23.8907 29.8078 21.9509C30.1937 20.0111 29.9957 18.0004 29.2388 16.1732C28.4819 14.3459 27.2002 12.7841 25.5557 11.6853Z" fill="#8F9291"/>
<path fill-rule="evenodd" clip-rule="evenodd" d="M9.99999 5.28493e-06C9.99999 1.31322 9.74134 2.61358 9.23879 3.82684C8.73624 5.04009 7.99965 6.14248 7.07106 7.07107C6.14248 7.99966 5.04009 8.73625 3.82683 9.2388C2.61357 9.74134 1.31321 10 4.3711e-07 10L0 20C2.62643 20 5.22715 19.4827 7.65367 18.4776C10.0802 17.4725 12.285 15.9993 14.1421 14.1421C15.9993 12.285 17.4725 10.0802 18.4776 7.65367C19.4827 5.22715 20 2.62643 20 0L9.99999 5.28493e-06Z" fill="#8F9291"/>
<path d="M125.618 14.4521H120.766V29.8644H125.618V14.4521Z" fill="#8F9291"/>
<path d="M121.308 11.5666C121.815 12.074 122.449 12.3277 123.21 12.3277C123.971 12.3277 124.595 12.074 125.081 11.5666C125.568 11.0381 125.811 10.4038 125.811 9.66385C125.811 8.90277 125.568 8.26849 125.081 7.76111C124.595 7.25369 123.971 7 123.21 7C122.449 7 121.815 7.25369 121.308 7.76111C120.821 8.26849 120.578 8.90277 120.578 9.66385C120.578 10.4038 120.821 11.0381 121.308 11.5666Z" fill="#8F9291"/>
<path d="M51.1562 29.8648V7.47571H56.1351V25.4885H66.0612V29.8648H51.1562Z" fill="#8F9291"/>
<path fill-rule="evenodd" clip-rule="evenodd" d="M75.0292 30.2136C73.4436 30.2136 72.006 29.8648 70.7163 29.1671C69.4478 28.4483 68.4436 27.4758 67.7036 26.2495C66.9637 25.0233 66.5938 23.6491 66.5938 22.1269C66.5938 20.6047 66.9637 19.2411 67.7036 18.036C68.4436 16.8309 69.4478 15.8795 70.7163 15.1819C71.9848 14.463 73.4225 14.1036 75.0292 14.1036C76.636 14.1036 78.0736 14.4525 79.3421 15.1501C80.6106 15.8478 81.6149 16.8098 82.3548 18.036C83.0948 19.2411 83.4648 20.6047 83.4648 22.1269C83.4648 23.6491 83.0948 25.0233 82.3548 26.2495C81.6149 27.4758 80.6106 28.4483 79.3421 29.1671C78.0736 29.8648 76.636 30.2136 75.0292 30.2136ZM75.0292 25.8056C75.7269 25.8056 76.34 25.6576 76.8686 25.3616C77.3971 25.0445 77.7988 24.6111 78.0736 24.0614C78.3696 23.4906 78.5176 22.8457 78.5176 22.1269C78.5176 21.4081 78.3696 20.7844 78.0736 20.2559C77.7776 19.7062 77.3654 19.2834 76.8368 18.9874C76.3294 18.6702 75.7269 18.5117 75.0292 18.5117C74.3527 18.5117 73.7502 18.6702 73.2216 18.9874C72.6931 19.2834 72.2808 19.7062 71.9848 20.2559C71.6888 20.8056 71.5409 21.4398 71.5409 22.1586C71.5409 22.8563 71.6888 23.4906 71.9848 24.0614C72.2808 24.6111 72.6931 25.0445 73.2216 25.3616C73.7502 25.6576 74.3527 25.8056 75.0292 25.8056Z" fill="#8F9291"/>
<path fill-rule="evenodd" clip-rule="evenodd" d="M87.3066 35.8906C88.5962 36.4825 90.0867 36.7785 91.7781 36.7785C93.4271 36.7785 94.8965 36.4508 96.1861 35.7954C97.4758 35.14 98.4905 34.231 99.2305 33.0682C99.9704 31.9054 100.341 30.5312 100.341 28.9455V14.4529H95.5835V15.4884C95.2297 15.1906 94.8279 14.9406 94.3785 14.7383C93.5539 14.3366 92.6131 14.1357 91.5561 14.1357C90.1396 14.1357 88.8816 14.474 87.7823 15.1505C86.6828 15.8059 85.8161 16.715 85.1818 17.8778C84.5475 19.0195 84.2305 20.3091 84.2305 21.7468C84.2305 23.1633 84.5475 24.4529 85.1818 25.6157C85.8161 26.7785 86.6828 27.6982 87.7823 28.3747C88.8816 29.0512 90.1396 29.3895 91.5561 29.3895C92.592 29.3895 93.5328 29.1887 94.3785 28.787C94.7881 28.5924 95.1581 28.3631 95.4884 28.099V29.0724C95.4884 30.1506 95.1396 30.9857 94.4419 31.5777C93.7654 32.1697 92.8246 32.4656 91.6195 32.4656C90.647 32.4656 89.8119 32.2965 89.1142 31.9582C88.4377 31.62 87.8245 31.1231 87.2748 30.4677L84.2939 33.4487C85.0338 34.5058 86.0381 35.3198 87.3066 35.8906ZM94.2199 24.6326C93.7336 24.9286 93.1523 25.0766 92.4757 25.0766C91.7992 25.0766 91.2072 24.9286 90.6998 24.6326C90.2135 24.3366 89.833 23.9349 89.5582 23.4275C89.2833 22.899 89.1459 22.3387 89.1459 21.7468C89.1459 21.1125 89.2833 20.5417 89.5582 20.0343C89.833 19.5269 90.2241 19.1252 90.7315 18.8292C91.2389 18.5332 91.8203 18.3852 92.4757 18.3852C93.1523 18.3852 93.7336 18.5332 94.2199 18.8292C94.7273 19.1252 95.1078 19.5269 95.3616 20.0343C95.6364 20.5417 95.7738 21.1125 95.7738 21.7468C95.7738 22.381 95.6364 22.9518 95.3616 23.4592C95.1078 23.9455 94.7273 24.3366 94.2199 24.6326Z" fill="#8F9291"/>
<path fill-rule="evenodd" clip-rule="evenodd" d="M110.549 30.2136C108.963 30.2136 107.525 29.8648 106.236 29.1671C104.967 28.4483 103.963 27.4758 103.223 26.2495C102.483 25.0233 102.113 23.6491 102.113 22.1269C102.113 20.6047 102.483 19.2411 103.223 18.036C103.963 16.8309 104.967 15.8795 106.236 15.1819C107.504 14.463 108.942 14.1036 110.549 14.1036C112.155 14.1036 113.593 14.4525 114.861 15.1501C116.13 15.8478 117.134 16.8098 117.874 18.036C118.614 19.2411 118.984 20.6047 118.984 22.1269C118.984 23.6491 118.614 25.0233 117.874 26.2495C117.134 27.4758 116.13 28.4483 114.861 29.1671C113.593 29.8648 112.155 30.2136 110.549 30.2136ZM110.549 25.8056C111.246 25.8056 111.859 25.6576 112.388 25.3616C112.916 25.0445 113.318 24.6111 113.593 24.0614C113.889 23.4906 114.037 22.8457 114.037 22.1269C114.037 21.4081 113.889 20.7844 113.593 20.2559C113.297 19.7062 112.885 19.2834 112.356 18.9874C111.849 18.6702 111.246 18.5117 110.549 18.5117C109.872 18.5117 109.269 18.6702 108.741 18.9874C108.212 19.2834 107.8 19.7062 107.504 20.2559C107.208 20.8056 107.06 21.4398 107.06 22.1586C107.06 22.8563 107.208 23.4906 107.504 24.0614C107.8 24.6111 108.212 25.0445 108.741 25.3616C109.269 25.6576 109.872 25.8056 110.549 25.8056Z" fill="#8F9291"/>
<path fill-rule="evenodd" clip-rule="evenodd" d="M137.281 30.1823C136.246 30.1823 135.294 29.9815 134.427 29.5798C133.971 29.3684 133.559 29.116 133.191 28.8226V36.3663H128.402V14.4529H133.254V15.5166C133.606 15.2287 133.997 14.9798 134.427 14.77C135.294 14.3471 136.246 14.1357 137.281 14.1357C138.74 14.1357 140.03 14.4846 141.15 15.1823C142.292 15.8799 143.18 16.8313 143.814 18.0364C144.47 19.2415 144.797 20.6157 144.797 22.159C144.797 23.7024 144.47 25.0766 143.814 26.2817C143.18 27.4868 142.292 28.4381 141.15 29.1358C140.03 29.8335 138.74 30.1823 137.281 30.1823ZM136.394 25.806C137.091 25.806 137.694 25.6474 138.201 25.3303C138.73 25.0132 139.142 24.5797 139.438 24.0301C139.734 23.4804 139.882 22.8567 139.882 22.159C139.882 21.4402 139.734 20.806 139.438 20.2563C139.142 19.7066 138.73 19.2838 138.201 18.9878C137.694 18.6706 137.102 18.5121 136.425 18.5121C135.749 18.5121 135.146 18.6706 134.618 18.9878C134.11 19.2838 133.709 19.7066 133.413 20.2563C133.117 20.806 132.969 21.4402 132.969 22.159C132.969 22.8567 133.106 23.4804 133.381 24.0301C133.677 24.5797 134.089 25.0132 134.618 25.3303C135.146 25.6474 135.738 25.806 136.394 25.806Z" fill="#8F9291"/>
<path d="M149.544 29.8968C150.432 30.1294 151.33 30.2456 152.239 30.2456C154.163 30.2456 155.685 29.8017 156.806 28.9137C157.947 28.0258 158.518 26.8313 158.518 25.3302C158.518 24.3577 158.339 23.5754 157.979 22.9835C157.62 22.3704 157.155 21.8841 156.584 21.5247C156.013 21.1653 155.41 20.8798 154.776 20.6684C154.142 20.457 153.539 20.2773 152.969 20.1293C152.398 19.9813 151.933 19.8122 151.573 19.6219C151.214 19.4316 151.034 19.1779 151.034 18.8608C151.034 18.5648 151.172 18.3428 151.446 18.1948C151.721 18.0257 152.133 17.9412 152.683 17.9412C153.254 17.9412 153.835 18.0574 154.427 18.29C155.04 18.5225 155.59 18.9243 156.076 19.4951L158.835 16.7044C158.138 15.8164 157.229 15.1504 156.108 14.7065C155.009 14.2414 153.804 14.0088 152.493 14.0088C151.246 14.0088 150.157 14.2202 149.227 14.643C148.296 15.0659 147.577 15.6473 147.07 16.3872C146.563 17.106 146.309 17.9623 146.309 18.956C146.309 19.8862 146.489 20.6579 146.848 21.271C147.207 21.8629 147.673 22.3281 148.243 22.6663C148.814 23.0046 149.417 23.2689 150.051 23.4591C150.685 23.6494 151.288 23.8291 151.859 23.9983C152.429 24.1463 152.895 24.326 153.254 24.5374C153.635 24.7277 153.825 25.0131 153.825 25.3936C153.825 25.6896 153.666 25.9221 153.349 26.0913C153.053 26.2604 152.62 26.345 152.049 26.345C151.224 26.345 150.463 26.197 149.766 25.901C149.068 25.5839 148.465 25.1505 147.958 24.6008L145.199 27.3915C145.728 27.9623 146.362 28.4698 147.102 28.9137C147.863 29.3365 148.677 29.6642 149.544 29.8968Z" fill="#8F9291"/>
<path d="M167.367 30.2133C165.951 30.2133 164.693 29.9279 163.594 29.3571C162.515 28.7651 161.67 27.9617 161.057 26.9469C160.443 25.911 160.137 24.727 160.137 23.395V14.4521H164.989V23.3316C164.989 23.8602 165.073 24.3147 165.243 24.6952C165.433 25.0758 165.708 25.3718 166.067 25.5832C166.427 25.7946 166.86 25.9003 167.367 25.9003C168.086 25.9003 168.657 25.6783 169.08 25.2343C169.503 24.7692 169.714 24.135 169.714 23.3316V14.4521H174.566V23.3633C174.566 24.7164 174.26 25.911 173.646 26.9469C173.033 27.9617 172.188 28.7651 171.109 29.3571C170.031 29.9279 168.784 30.2133 167.367 30.2133Z" fill="#8F9291"/>
<path d="M181.832 14.4529H176.98V29.8652H181.832V20.8588C181.832 20.3303 181.938 19.8863 182.149 19.5269C182.382 19.1675 182.689 18.8926 183.069 18.7024C183.45 18.4909 183.883 18.3852 184.369 18.3852C185.067 18.3852 185.648 18.6072 186.113 19.0512C186.6 19.474 186.843 20.0766 186.843 20.8588V29.8652H191.695V20.8588C191.695 20.3303 191.801 19.8863 192.012 19.5269C192.245 19.1675 192.551 18.8926 192.932 18.7024C193.312 18.4909 193.746 18.3852 194.232 18.3852C194.93 18.3852 195.511 18.6072 195.976 19.0512C196.462 19.474 196.705 20.0766 196.705 20.8588V29.8652H201.558V20.3197C201.558 19.0301 201.283 17.9307 200.733 17.0216C200.204 16.0913 199.475 15.3831 198.545 14.8969C197.636 14.3894 196.589 14.1357 195.405 14.1357C194.2 14.1357 193.111 14.4 192.139 14.9286C191.507 15.2653 190.955 15.6999 190.482 16.2323C190.041 15.6754 189.505 15.2197 188.872 14.8651C188.027 14.3789 187.065 14.1357 185.987 14.1357C184.845 14.1357 183.82 14.3789 182.911 14.8651C182.515 15.0674 182.156 15.3097 181.832 15.592V14.4529Z" fill="#8F9291"/>
</g>
<defs>
<clipPath id="clip0_417_226">
<rect width="202" height="40" fill="white"/>
</clipPath>
</defs>
</svg>
