<svg width="182" height="61" viewBox="0 0 182 61" fill="none" xmlns="http://www.w3.org/2000/svg">
<rect width="181.8" height="61" rx="30.5" fill="white"/>
<path d="M67.5685 44.5019H65.973L65.7912 42.2601C65.4411 42.9625 64.8688 43.5678 64.0744 44.0759C63.28 44.5841 62.324 44.8381 61.2064 44.8381C59.9811 44.8381 58.8501 44.5318 57.8133 43.919C56.7765 43.2913 55.9215 42.3348 55.2482 41.0495C54.5884 39.7643 54.2585 38.2623 54.2585 36.5436C54.2585 34.8249 54.6086 33.3229 55.3088 32.0376C56.009 30.7524 56.8842 29.8034 57.9344 29.1906C58.9982 28.5779 60.1359 28.2715 61.3478 28.2715C62.8828 28.2715 64.2158 28.7124 65.3468 29.5941C66.4913 30.4609 67.2723 31.6192 67.6897 33.0689L65.8922 33.9207C65.569 32.77 65.0035 31.8807 64.1956 31.253C63.4012 30.6104 62.4519 30.2891 61.3478 30.2891C59.9609 30.2891 58.7693 30.8346 57.7729 31.9256C56.7765 33.0166 56.2783 34.5559 56.2783 36.5436C56.2783 38.5462 56.763 40.1005 57.7325 41.2065C58.7154 42.2975 59.8936 42.843 61.267 42.843C62.021 42.843 62.6875 42.7085 63.2665 42.4394C63.859 42.1704 64.3168 41.8192 64.6399 41.3858C64.9766 40.9375 65.2257 40.4891 65.3872 40.0408C65.5623 39.5924 65.6633 39.144 65.6902 38.6957H60.7217V36.7229H67.5685V44.5019ZM72.4088 41.9463C73.0012 42.6188 73.7216 42.955 74.5699 42.955C75.4182 42.955 76.1318 42.6188 76.7108 41.9463C77.3032 41.2588 77.5995 40.3098 77.5995 39.0992C77.5995 37.9036 77.3032 36.9695 76.7108 36.297C76.1318 35.6095 75.4182 35.2658 74.5699 35.2658C73.7216 35.2658 73.0012 35.6095 72.4088 36.297C71.8298 36.9695 71.5403 37.9036 71.5403 39.0992C71.5403 40.3098 71.8298 41.2588 72.4088 41.9463ZM70.995 35.0192C71.9375 33.9282 73.1291 33.3827 74.5699 33.3827C76.0106 33.3827 77.1955 33.9282 78.1246 35.0192C79.0671 36.0952 79.5384 37.4552 79.5384 39.0992C79.5384 40.7581 79.0739 42.1331 78.1448 43.2241C77.2157 44.3001 76.0241 44.8381 74.5699 44.8381C73.1157 44.8381 71.924 44.3001 70.995 43.2241C70.0659 42.1331 69.6013 40.7581 69.6013 39.0992C69.6013 37.4552 70.0659 36.0952 70.995 35.0192ZM83.967 41.9463C84.5594 42.6188 85.2798 42.955 86.1281 42.955C86.9764 42.955 87.69 42.6188 88.269 41.9463C88.8614 41.2588 89.1577 40.3098 89.1577 39.0992C89.1577 37.9036 88.8614 36.9695 88.269 36.297C87.69 35.6095 86.9764 35.2658 86.1281 35.2658C85.2798 35.2658 84.5594 35.6095 83.967 36.297C83.388 36.9695 83.0985 37.9036 83.0985 39.0992C83.0985 40.3098 83.388 41.2588 83.967 41.9463ZM82.5532 35.0192C83.4957 33.9282 84.6873 33.3827 86.1281 33.3827C87.5688 33.3827 88.7537 33.9282 89.6828 35.0192C90.6253 36.0952 91.0966 37.4552 91.0966 39.0992C91.0966 40.7581 90.6321 42.1331 89.703 43.2241C88.7739 44.3001 87.5823 44.8381 86.1281 44.8381C84.6739 44.8381 83.4822 44.3001 82.5532 43.2241C81.6241 42.1331 81.1596 40.7581 81.1596 39.0992C81.1596 37.4552 81.6241 36.0952 82.5532 35.0192ZM92.8188 45.0847L94.6567 44.614C94.724 45.3762 95.0001 46.0038 95.4848 46.497C95.9695 47.0052 96.5755 47.2592 97.3026 47.2592C99.2819 47.2592 100.272 46.0935 100.272 43.7621V42.2153C100.029 42.7383 99.6454 43.1643 99.1203 43.4931C98.6086 43.8219 98.0027 43.9863 97.3026 43.9863C96.0099 43.9863 94.9395 43.5005 94.0912 42.5291C93.2564 41.5427 92.839 40.2873 92.839 38.7629C92.839 37.2834 93.2564 36.0429 94.0912 35.0416C94.926 34.0253 95.9965 33.5172 97.3026 33.5172C98.7837 33.5172 99.7801 34.0851 100.292 35.221V33.719H102.17V43.6948C102.17 44.4122 102.083 45.0773 101.908 45.69C101.746 46.3177 101.484 46.8931 101.12 47.4162C100.756 47.9392 100.245 48.3502 99.5848 48.6491C98.9385 48.948 98.1778 49.0975 97.3026 49.0975C96.1042 49.0975 95.0876 48.7164 94.2528 47.9542C93.4179 47.2069 92.9399 46.2504 92.8188 45.0847ZM97.5853 42.2153C98.4067 42.2153 99.0732 41.9014 99.5848 41.2737C100.097 40.6311 100.352 39.7942 100.352 38.7629C100.352 37.7317 100.097 36.9023 99.5848 36.2746C99.0732 35.6319 98.4067 35.3106 97.5853 35.3106C96.7505 35.3106 96.0705 35.6245 95.5454 36.2522C95.0337 36.8799 94.7779 37.7168 94.7779 38.7629C94.7779 39.824 95.027 40.6684 95.5252 41.2961C96.0369 41.9089 96.7236 42.2153 97.5853 42.2153ZM107.1 44.5019H105.202V28.2715H107.1V44.5019ZM111.562 38.0007H116.874C116.847 37.1937 116.605 36.5361 116.147 36.028C115.689 35.5049 115.043 35.2434 114.208 35.2434C113.454 35.2434 112.834 35.5199 112.35 36.0728C111.865 36.6109 111.602 37.2535 111.562 38.0007ZM117.157 40.803L118.793 41.4306C118.51 42.432 117.985 43.2539 117.217 43.8966C116.45 44.5243 115.521 44.8381 114.43 44.8381C113.07 44.8381 111.912 44.3225 110.956 43.2913C110.014 42.2452 109.542 40.8403 109.542 39.0768C109.542 37.4328 110 36.0728 110.916 34.9968C111.831 33.9207 112.922 33.3827 114.188 33.3827C115.655 33.3827 116.8 33.8983 117.621 34.9295C118.443 35.9458 118.853 37.3133 118.853 39.032C118.853 39.301 118.84 39.5251 118.813 39.7045H111.501C111.515 40.661 111.798 41.4456 112.35 42.0583C112.915 42.6711 113.609 42.9775 114.43 42.9775C115.817 42.9775 116.726 42.2526 117.157 40.803ZM128.508 36.028H131.376C132.224 36.028 132.897 35.7889 133.395 35.3106C133.893 34.8174 134.143 34.1599 134.143 33.3379C134.143 32.5009 133.893 31.8359 133.395 31.3427C132.897 30.8346 132.224 30.5805 131.376 30.5805H128.508V36.028ZM131.739 38.0007H128.508V44.5019H126.528V28.6077H131.739C133.045 28.6077 134.109 29.0561 134.93 29.9528C135.752 30.8495 136.162 31.9704 136.162 33.3155C136.162 34.6755 135.752 35.7963 134.93 36.6781C134.109 37.5599 133.045 38.0007 131.739 38.0007ZM140.079 44.5019H138.18V28.2715H140.079V44.5019ZM142.702 41.61C142.702 40.6834 142.972 39.9436 143.51 39.3906C144.049 38.8227 144.762 38.4715 145.651 38.337L148.277 37.9111C148.775 37.8364 149.024 37.5673 149.024 37.104C149.024 36.5361 148.849 36.0728 148.499 35.7141C148.149 35.3555 147.624 35.1761 146.924 35.1761C146.277 35.1761 145.766 35.3779 145.389 35.7814C145.012 36.17 144.789 36.693 144.722 37.3506L142.904 36.8799C142.999 35.8487 143.423 35.0117 144.177 34.3691C144.931 33.7115 145.833 33.3827 146.883 33.3827C148.257 33.3827 149.273 33.7563 149.933 34.5036C150.593 35.2359 150.923 36.1774 150.923 37.3282V42.7309C150.923 43.3735 150.963 43.9638 151.044 44.5019H149.186C149.118 44.0535 149.085 43.5678 149.085 43.0447C148.815 43.523 148.418 43.9414 147.893 44.3001C147.381 44.6588 146.735 44.8381 145.954 44.8381C144.998 44.8381 144.217 44.5243 143.611 43.8966C143.005 43.2539 142.702 42.4917 142.702 41.61ZM146.217 43.0671C147.065 43.0671 147.745 42.8131 148.257 42.3049C148.768 41.7968 149.024 40.9898 149.024 39.8838V39.3906L146.055 39.8838C145.624 39.9586 145.281 40.1304 145.025 40.3994C144.769 40.6684 144.641 41.0346 144.641 41.4979C144.641 41.9164 144.783 42.2825 145.065 42.5964C145.362 42.9102 145.745 43.0671 146.217 43.0671ZM156.108 49.0078H154.027L156.451 43.3137L152.27 33.719H154.451L157.481 41.1616L160.389 33.719H162.429L156.108 49.0078Z" fill="#060B13"/>
<path opacity="0.6" d="M59.8747 19.9486V16.7973H57.1509V17.8222H58.8744C58.8129 18.2492 58.4205 19.0007 57.4125 19.0007C56.4969 19.0007 55.689 18.2919 55.689 16.9254C55.689 15.4907 56.5816 14.8673 57.4049 14.8673C58.2897 14.8673 58.7436 15.4907 58.8821 16.0287L59.8978 15.6274C59.6285 14.6965 58.836 13.7656 57.4049 13.7656C55.9276 13.7656 54.6119 14.9698 54.6119 16.9254C54.6119 18.8811 55.866 20.0767 57.3356 20.0767C58.1589 20.0767 58.6975 19.6668 58.9437 19.2569L59.0129 19.9486H59.8747ZM65.805 19.9486V18.8384H63.4506V17.4378H65.5819V16.3874H63.4506V15.0039H65.805V13.8937H62.3888V19.9486H65.805ZM72.4162 15.0125V13.8937H67.8997V15.0125H69.6232V19.9486H70.6927V15.0125H72.4162ZM79.0272 19.9486V13.8937H77.95V19.9486H79.0272ZM85.7308 15.0125V13.8937H81.2143V15.0125H82.9378V19.9486H84.0073V15.0125H85.7308ZM92.0416 16.9169C92.0416 15.5505 92.9034 14.9015 93.742 14.9015C94.5884 14.9015 95.4501 15.5505 95.4501 16.9169C95.4501 18.2833 94.5884 18.9324 93.742 18.9324C92.9034 18.9324 92.0416 18.2833 92.0416 16.9169ZM90.9413 16.9254C90.9413 18.8726 92.2647 20.0767 93.742 20.0767C95.227 20.0767 96.5504 18.8726 96.5504 16.9254C96.5504 14.9698 95.227 13.7656 93.742 13.7656C92.2647 13.7656 90.9413 14.9698 90.9413 16.9254ZM103.569 19.9486V13.8937H102.507V17.899L100.237 13.8937H98.9137V19.9486H99.9755V15.653L102.453 19.9486H103.569Z" fill="#060B13"/>
<path d="M23.5908 44.0649C23.0211 44.4735 22.3369 44.5971 21.695 44.4288L32.9739 31.9102L36.6293 35.9674L23.5908 44.0649Z" fill="#060B13"/>
<path d="M20.2956 43.4095C19.9811 42.9453 19.8 42.3754 19.8 41.7724V19.473C19.8 18.87 19.9811 18.3001 20.2956 17.8359L31.8159 30.6226L20.2956 43.4095Z" fill="#060B13"/>
<path d="M41.4004 33.004L38.115 35.0442L34.1324 30.6238L38.1153 26.2031L41.4009 28.2436C42.1881 28.733 42.658 29.6228 42.658 30.6238C42.658 31.6248 42.1881 32.5144 41.4004 33.004Z" fill="#060B13"/>
<path d="M32.974 29.3383L21.6959 16.8204C21.8808 16.772 22.069 16.7461 22.2571 16.7461C22.7222 16.7461 23.1856 16.8929 23.591 17.1836L36.6296 25.2809L32.974 29.3383Z" fill="#060B13"/>
</svg>
