<svg width="44" height="44" viewBox="0 0 44 44" fill="none" xmlns="http://www.w3.org/2000/svg">
<path d="M27.9028 20.185C28.0208 16.8043 25.376 13.968 21.9953 13.85C18.6146 13.7319 15.7783 16.3768 15.6602 19.7575C15.5422 23.1382 18.1871 25.9745 21.5677 26.0925C24.9484 26.2106 27.7847 23.5657 27.9028 20.185Z" stroke="#4868CA" stroke-width="2.625" stroke-linecap="round" stroke-linejoin="round"/>
<path d="M27.8495 20.7956C28.4067 20.986 29.0007 21.0987 29.6195 21.1203C33.0002 21.2383 35.8365 18.5935 35.9545 15.2128C36.0726 11.8321 33.4277 8.9958 30.047 8.87774C26.8729 8.7669 24.1786 11.0917 23.7636 14.1744" stroke="#4868CA" stroke-width="2.625" stroke-linecap="round" stroke-linejoin="round"/>
<path d="M20.2066 14.0503C20.0077 10.9462 17.4822 8.43911 14.308 8.32826C10.9273 8.21021 8.091 10.8551 7.97295 14.2358C7.85489 17.6165 10.4998 20.4527 13.8805 20.5708C14.4992 20.5924 15.0998 20.5214 15.6688 20.3704" stroke="#4868CA" stroke-width="2.625" stroke-linecap="round" stroke-linejoin="round"/>
<path d="M38.9339 30.2012C39.1025 25.3717 34.9326 21.3061 29.6201 21.1206" stroke="#4868CA" stroke-width="2.625" stroke-linecap="round" stroke-linejoin="round"/>
<path d="M30.8812 35.173C31.0498 30.3435 26.88 26.278 21.5674 26.0924C16.2549 25.9069 11.8116 29.6717 11.6429 34.5012" stroke="#4868CA" stroke-width="2.625" stroke-linecap="round" stroke-linejoin="round"/>
<path d="M13.8798 20.5708C8.56734 20.3853 4.12399 24.15 3.95534 28.9795" stroke="#4868CA" stroke-width="2.625" stroke-linecap="round" stroke-linejoin="round"/>
</svg>
