<svg width="18" height="16" viewBox="0 0 18 16" fill="none" xmlns="http://www.w3.org/2000/svg">
<path d="M4.80859 6.78125H6.74539V8.74176H4.80859V6.78125Z" fill="#555555"/>
<path d="M8.03125 6.78125H9.96805V8.74176H8.03125V6.78125Z" fill="#555555"/>
<path d="M11.2539 6.78125H13.1907V8.74176H11.2539V6.78125Z" fill="#555555"/>
<path d="M14.4766 6.78125H16.4134V8.74176H14.4766V6.78125Z" fill="#555555"/>
<path d="M1.58594 9.45703H3.52274V11.4175H1.58594V9.45703Z" fill="#555555"/>
<path d="M4.80859 9.45703H6.74539V11.4175H4.80859V9.45703Z" fill="#555555"/>
<path d="M8.03125 9.45703H9.96805V11.4175H8.03125V9.45703Z" fill="#555555"/>
<path d="M11.2539 9.45703H13.1907V11.4175H11.2539V9.45703Z" fill="#555555"/>
<path d="M14.4766 9.45703H16.4134V11.4175H14.4766V9.45703Z" fill="#555555"/>
<path d="M1.58594 12.1309H3.52274V14.0914H1.58594V12.1309Z" fill="#555555"/>
<path d="M4.80859 12.1309H6.74539V14.0914H4.80859V12.1309Z" fill="#555555"/>
<path d="M8.03125 12.1309H9.96805V14.0914H8.03125V12.1309Z" fill="#555555"/>
<path d="M11.2539 12.1309H13.1907V14.0914H11.2539V12.1309Z" fill="#555555"/>
<path d="M16.3008 1.63867H14.5548V2.38571C14.5548 3.08901 13.9896 3.66113 13.2948 3.66113C12.6 3.66113 12.0348 3.08901 12.0348 2.38571V1.63867H5.9688V2.38571C5.9688 3.08901 5.4036 3.66113 4.7088 3.66113C4.014 3.66113 3.4488 3.08901 3.4488 2.38571V1.63867H1.6992C0.7632 1.63867 0 2.41121 0 3.35867V14.2799C0 15.2274 0.7632 15.9999 1.6992 15.9999H16.3008C17.2368 15.9999 18 15.2274 18 14.2799V3.35867C18 2.41121 17.2368 1.63867 16.3008 1.63867ZM17.046 14.2836C17.046 14.7026 16.7112 15.0415 16.2972 15.0415H1.6992C1.2852 15.0415 0.9504 14.7026 0.9504 14.2836V5.88036H17.046V14.2836Z" fill="#555555"/>
<path d="M4.70667 3.18127C5.13867 3.18127 5.49147 2.82415 5.49147 2.38686V0.794406C5.49147 0.357118 5.13867 0 4.70667 0C4.27468 0 3.92188 0.357118 3.92188 0.794406V2.38686C3.92188 2.82779 4.27468 3.18127 4.70667 3.18127Z" fill="#555555"/>
<path d="M13.2887 3.18127C13.7207 3.18127 14.0735 2.82415 14.0735 2.38686V0.794406C14.0735 0.357118 13.7207 0 13.2887 0C12.8567 0 12.5039 0.357118 12.5039 0.794406V2.38686C12.5039 2.82779 12.8567 3.18127 13.2887 3.18127Z" fill="#555555"/>
</svg>
