<svg width="156" height="156" viewBox="0 0 156 156" fill="none" xmlns="http://www.w3.org/2000/svg">
<circle cx="78" cy="78" r="78" fill="#C8D6F5"/>
<path d="M79 148C117.66 148 149 116.66 149 78C149 39.3401 117.66 8 79 8C40.3401 8 9 39.3401 9 78C9 116.66 40.3401 148 79 148Z" fill="#5879EE"/>
<path d="M57.4787 79.5378C61.096 86.6188 64.7134 93.71 68.3307 100.791C69.3657 102.83 72.4092 102.185 73.0138 100.176C77.7583 84.3541 86.5711 69.936 98.4478 58.4692C100.825 56.1738 97.1976 52.5565 94.8202 54.8416C82.3184 66.9131 73.065 82.1715 68.0643 98.8132L72.7473 98.1984C69.13 91.1174 65.5127 84.0262 61.8953 76.9452C60.3992 74.0042 55.9724 76.5969 57.4685 79.5276H57.4787V79.5378Z" fill="white"/>
</svg>
