<svg width="68" height="68" viewBox="0 0 68 68" fill="none" xmlns="http://www.w3.org/2000/svg">
<rect x="0.499614" y="0.499614" width="67.0008" height="67.0008" rx="33.5004" fill="white" fill-opacity="0.2"/>
<rect x="0.499614" y="0.499614" width="67.0008" height="67.0008" rx="33.5004" fill="url(#paint0_linear_417_1855)"/>
<rect x="0.499614" y="0.499614" width="67.0008" height="67.0008" rx="33.5004" stroke="url(#paint1_linear_417_1855)" stroke-width="0.999228"/>
<path d="M7.49609 33.7258C7.49609 19.2396 19.2396 7.49609 33.7258 7.49609C48.2121 7.49609 59.9556 19.2396 59.9556 33.7258C59.9556 48.2121 48.2121 59.9556 33.7258 59.9556C19.2396 59.9556 7.49609 48.2121 7.49609 33.7258Z" fill="#4868CA"/>
<path d="M33.7256 7.87109C48.0048 7.87109 59.5809 19.4464 59.5811 33.7256C59.5811 48.0049 48.0049 59.5811 33.7256 59.5811C19.4464 59.5809 7.87109 48.0048 7.87109 33.7256C7.87123 19.4464 19.4464 7.87123 33.7256 7.87109Z" stroke="url(#paint2_linear_417_1855)" stroke-opacity="0.3" stroke-width="0.749421"/>
<path d="M39.4326 30.7617L39.2793 30.915V34.6815L39.4326 34.8348H40.2368L40.3901 34.6815V30.915L40.2368 30.7617H39.4326Z" fill="white"/>
<path d="M44.0923 25.9492H23.3566C23.2584 25.9492 23.1642 25.9882 23.0948 26.0577C23.0253 26.1271 22.9863 26.2213 22.9863 26.3195V41.1307C22.9863 41.2289 23.0253 41.3231 23.0948 41.3925C23.1642 41.462 23.2584 41.501 23.3566 41.501H44.0923C44.1905 41.501 44.2847 41.462 44.3541 41.3925C44.4236 41.3231 44.4626 41.2289 44.4626 41.1307V26.3195C44.4626 26.2213 44.4236 26.1271 44.3541 26.0577C44.2847 25.9882 44.1905 25.9492 44.0923 25.9492ZM29.6514 34.8359H30.0216V30.7629H29.6514V30.0223H30.3919C30.4901 30.0223 30.5843 30.0613 30.6538 30.1308C30.7232 30.2002 30.7622 30.2944 30.7622 30.3926V34.8359H31.1325V35.5765H29.6514V34.8359ZM26.3188 30.7629C26.3189 30.6647 26.3579 30.5705 26.4273 30.5011L26.7976 30.1308C26.832 30.0964 26.8728 30.0691 26.9177 30.0505C26.9626 30.0319 27.0108 30.0223 27.0594 30.0223H28.1702C28.2189 30.0223 28.267 30.0319 28.3119 30.0505C28.3569 30.0691 28.3977 30.0964 28.432 30.1308L28.8023 30.5011C28.8718 30.5705 28.9108 30.6647 28.9108 30.7629V34.8359C28.9108 34.9341 28.8718 35.0283 28.8023 35.0977L28.432 35.468C28.3977 35.5024 28.3569 35.5297 28.3119 35.5483C28.267 35.5669 28.2189 35.5765 28.1702 35.5765H27.0594C27.0108 35.5765 26.9626 35.5669 26.9177 35.5483C26.8728 35.5297 26.832 35.5024 26.7976 35.468L26.4273 35.0977C26.3579 35.0283 26.3189 34.9341 26.3188 34.8359V30.7629ZM31.5028 39.2793C31.5028 39.3775 31.4638 39.4717 31.3943 39.5411C31.3249 39.6106 31.2307 39.6496 31.1325 39.6496H26.6891C26.5909 39.6496 26.4967 39.6106 26.4273 39.5411C26.3579 39.4717 26.3188 39.3775 26.3188 39.2793V37.4279C26.3188 37.3297 26.3579 37.2355 26.4273 37.1661C26.4967 37.0966 26.5909 37.0576 26.6891 37.0576H31.1325C31.2307 37.0576 31.3249 37.0966 31.3943 37.1661C31.4638 37.2355 31.5028 37.3297 31.5028 37.4279V39.2793ZM31.873 27.8006H35.5758V28.5412H31.873V27.8006ZM34.0947 34.4657H33.3542V33.3548H34.0947V34.4657ZM34.0947 31.8737H33.3542V30.7629H34.0947V31.8737ZM35.3141 35.0977C35.2446 35.0283 35.2056 34.9341 35.2056 34.8359V30.7629C35.2056 30.6647 35.2446 30.5705 35.3141 30.5011L35.6843 30.1308C35.7187 30.0964 35.7595 30.0691 35.8044 30.0505C35.8494 30.0319 35.8975 30.0223 35.9461 30.0223H37.057C37.1056 30.0223 37.1537 30.0319 37.1987 30.0505C37.2436 30.0691 37.2844 30.0964 37.3188 30.1308L37.689 30.5011C37.7585 30.5705 37.7975 30.6647 37.7975 30.7629V34.8359C37.7975 34.9341 37.7585 35.0283 37.689 35.0977L37.3188 35.468C37.2844 35.5024 37.2436 35.5297 37.1987 35.5483C37.1537 35.5669 37.1056 35.5765 37.057 35.5765H35.9461C35.8975 35.5765 35.8494 35.5669 35.8044 35.5483C35.7595 35.5297 35.7187 35.5024 35.6843 35.468L35.3141 35.0977ZM41.13 39.2793C41.13 39.3775 41.091 39.4717 41.0216 39.5411C40.9522 39.6106 40.858 39.6496 40.7598 39.6496H36.3164C36.2182 39.6496 36.124 39.6106 36.0546 39.5411C35.9851 39.4717 35.9461 39.3775 35.9461 39.2793V37.4279C35.9461 37.3297 35.9851 37.2355 36.0546 37.1661C36.124 37.0966 36.2182 37.0576 36.3164 37.0576H40.7598C40.858 37.0576 40.9522 37.0966 41.0216 37.1661C41.091 37.2355 41.13 37.3297 41.13 37.4279V39.2793ZM41.13 34.8359C41.13 34.9341 41.091 35.0283 41.0216 35.0977L40.6513 35.468C40.6169 35.5024 40.5761 35.5297 40.5312 35.5483C40.4863 35.5669 40.4381 35.5765 40.3895 35.5765H39.2786C39.23 35.5765 39.1819 35.5669 39.137 35.5483C39.092 35.5297 39.0512 35.5024 39.0169 35.468L38.6466 35.0977C38.5771 35.0283 38.5381 34.9341 38.5381 34.8359V30.7629C38.5381 30.6647 38.5771 30.5705 38.6466 30.5011L39.0169 30.1308C39.0512 30.0964 39.092 30.0691 39.137 30.0505C39.1819 30.0319 39.23 30.0223 39.2786 30.0223H40.3895C40.4381 30.0223 40.4863 30.0319 40.5312 30.0505C40.5761 30.0691 40.6169 30.0964 40.6513 30.1308L41.0216 30.5011C41.091 30.5705 41.13 30.6647 41.13 30.7629V34.8359Z" fill="white"/>
<path d="M36.9048 34.8348L37.0581 34.6815V30.915L36.9048 30.7617H36.1006L35.9473 30.915V34.6815L36.1006 34.8348H36.9048Z" fill="white"/>
<path d="M28.0181 34.8348L28.1714 34.6815V30.915L28.0181 30.7617H27.2138L27.0605 30.915V34.6815L27.2138 34.8348H28.0181Z" fill="white"/>
<defs>
<linearGradient id="paint0_linear_417_1855" x1="34" y1="0" x2="34" y2="68" gradientUnits="userSpaceOnUse">
<stop stop-color="white"/>
<stop offset="1" stop-color="white" stop-opacity="0"/>
</linearGradient>
<linearGradient id="paint1_linear_417_1855" x1="34" y1="0" x2="34" y2="68" gradientUnits="userSpaceOnUse">
<stop stop-color="#DCE3E7"/>
<stop offset="0.8" stop-color="#DCE3E7" stop-opacity="0"/>
</linearGradient>
<linearGradient id="paint2_linear_417_1855" x1="24.63" y1="10.5892" x2="41.4684" y2="59.9556" gradientUnits="userSpaceOnUse">
<stop stop-color="white" stop-opacity="0.3"/>
<stop offset="1" stop-color="#BAC8D1" stop-opacity="0.8"/>
</linearGradient>
</defs>
</svg>
