<svg width="68" height="68" viewBox="0 0 68 68" fill="none" xmlns="http://www.w3.org/2000/svg">
<rect x="0.499614" y="0.499614" width="67.0008" height="67.0008" rx="33.5004" fill="white" fill-opacity="0.2"/>
<rect x="0.499614" y="0.499614" width="67.0008" height="67.0008" rx="33.5004" fill="url(#paint0_linear_417_1526)"/>
<rect x="0.499614" y="0.499614" width="67.0008" height="67.0008" rx="33.5004" stroke="url(#paint1_linear_417_1526)" stroke-width="0.999228"/>
<path d="M7.49609 33.7258C7.49609 19.2396 19.2396 7.49609 33.7258 7.49609C48.2121 7.49609 59.9556 19.2396 59.9556 33.7258C59.9556 48.2121 48.2121 59.9556 33.7258 59.9556C19.2396 59.9556 7.49609 48.2121 7.49609 33.7258Z" fill="#4868CA"/>
<path d="M33.7256 7.87109C48.0048 7.87109 59.5809 19.4464 59.5811 33.7256C59.5811 48.0049 48.0049 59.5811 33.7256 59.5811C19.4464 59.5809 7.87109 48.0048 7.87109 33.7256C7.87123 19.4464 19.4464 7.87123 33.7256 7.87109Z" stroke="url(#paint2_linear_417_1526)" stroke-opacity="0.3" stroke-width="0.749421"/>
<path d="M33.7248 23.6992C28.1927 23.6992 23.6992 28.1921 23.6992 33.7235C23.6992 39.2549 28.1927 43.7513 33.7248 43.7513C39.2569 43.7513 43.7504 39.2549 43.7504 33.7235C43.7504 28.1921 39.2569 23.6992 33.7248 23.6992ZM36.9406 26.1799C37.0568 26.1786 37.1738 26.2211 37.2655 26.3089C37.4484 26.4852 37.4497 26.782 37.2655 26.9613L36.6246 27.6022C36.1949 28.032 35.5505 27.3876 35.9802 26.9578C37.2679 25.67 35.3342 27.6042 36.6211 26.3161C36.7086 26.2267 36.8244 26.1813 36.9406 26.1799ZM39.1248 26.3917C39.3714 26.5735 39.6084 26.766 39.8351 26.9712L26.972 39.8349C26.7671 39.6085 26.5741 39.3718 26.3925 39.1255L39.1248 26.3917ZM40.4794 27.6174C40.6837 27.8433 40.8769 28.0786 41.058 28.3241L28.3248 41.0588C28.0787 40.8773 27.8427 40.6842 27.6164 40.4793L40.4794 27.6174ZM35.0065 28.1132C35.1227 28.1118 35.2406 28.1552 35.3323 28.2431C35.5152 28.4193 35.5165 28.7153 35.3323 28.8946L34.6914 29.5355C34.2617 29.9653 33.6173 29.3208 34.047 28.8911C35.3347 27.6033 33.401 29.5374 34.6879 28.2493C34.7754 28.1597 34.8903 28.1146 35.0065 28.1132ZM33.0733 30.0465C33.1895 30.0451 33.3065 30.0885 33.3982 30.1764C33.5811 30.3526 33.5824 30.6494 33.3982 30.8288L32.7582 31.4688C32.3285 31.8985 31.6841 31.2541 32.1138 30.8243C33.4015 29.5365 31.4678 31.4716 32.7547 30.1835C32.8422 30.0939 32.9571 30.0479 33.0733 30.0465ZM40.807 30.0465C40.9232 30.0451 41.0402 30.0885 41.1319 30.1764C41.3148 30.3526 41.3161 30.6486 41.1319 30.8279L40.4919 31.4688C40.0622 31.8985 39.4178 31.2541 39.8475 30.8243C41.1352 29.5366 39.2015 31.4716 40.4883 30.1835C40.5759 30.0939 40.6908 30.0479 40.807 30.0465ZM31.1401 31.9807C31.2563 31.9793 31.3733 32.0218 31.465 32.1097C31.6479 32.2859 31.6492 32.5828 31.465 32.7621L30.8241 33.403C30.3944 33.8328 29.75 33.1883 30.1797 32.7586C31.4674 31.4708 29.5337 33.405 30.8206 32.1168C30.9081 32.0272 31.0239 31.982 31.1401 31.9807ZM38.8738 31.9807C38.99 31.9793 39.107 32.0218 39.1987 32.1097C39.3816 32.2859 39.3829 32.5828 39.1987 32.7621L38.5578 33.403C38.1281 33.8328 37.4837 33.1883 37.9134 32.7586C39.2011 31.4708 37.2674 33.405 38.5543 32.1168C38.6418 32.0272 38.7576 31.982 38.8738 31.9807ZM29.2069 33.9139C29.3231 33.9126 29.4401 33.956 29.5318 34.0438C29.7147 34.2201 29.716 34.516 29.5318 34.6954L28.8909 35.3362C28.4612 35.766 27.8168 35.1216 28.2465 34.6918C29.5342 33.404 27.6005 35.3382 28.8874 34.0501C28.9749 33.9607 29.0907 33.9153 29.2069 33.9139ZM36.9406 33.9139C37.0568 33.9126 37.1738 33.9551 37.2655 34.043C37.4484 34.2192 37.4497 34.516 37.2655 34.6954L36.6246 35.3362C36.1949 35.766 35.5505 35.1216 35.9802 34.6918C37.2679 33.4041 35.3342 35.3383 36.6211 34.0501C36.7086 33.9605 36.8244 33.9153 36.9406 33.9139ZM27.2728 35.8473C27.389 35.8459 27.506 35.8893 27.5977 35.9771C27.7806 36.1534 27.7828 36.4493 27.5986 36.6287L26.9577 37.2696C26.528 37.6993 25.8836 37.0549 26.3133 36.6251C27.601 35.3373 25.6673 37.2724 26.9542 35.9843C27.0417 35.8949 27.1566 35.8487 27.2728 35.8473ZM35.0065 35.8473C35.1227 35.8459 35.2397 35.8893 35.3314 35.9771C35.5143 36.1534 35.5165 36.4494 35.3323 36.6287L34.6914 37.2696C34.2617 37.6993 33.6173 37.0549 34.047 36.6251C35.3347 35.3374 33.401 37.2724 34.6879 35.9843C34.7754 35.8949 34.8903 35.8487 35.0065 35.8473ZM33.0733 37.7806C33.1895 37.7792 33.3065 37.8226 33.3982 37.9104C33.5811 38.0867 33.5824 38.3835 33.3982 38.5629L32.7573 39.2029C32.3276 39.6326 31.6832 38.9882 32.1129 38.5584C33.4006 37.2706 31.4678 39.2057 32.7547 37.9175C32.8422 37.8282 32.9571 37.7819 33.0733 37.7806ZM31.1401 39.7147C31.2563 39.7134 31.3733 39.7559 31.465 39.8437C31.6479 40.02 31.6492 40.3169 31.465 40.4962L30.8241 41.137C30.3944 41.5668 29.75 40.9224 30.1797 40.4926C31.4674 39.2049 29.5337 41.139 30.8206 39.8508C30.9081 39.7613 31.0239 39.7161 31.1401 39.7147Z" fill="white"/>
<path d="M23.3141 37.9378C23.2389 37.9406 23.1655 37.9619 23.1005 37.9999C23.0355 38.038 22.981 38.0915 22.9417 38.1558C22.9025 38.2201 22.8798 38.2931 22.8757 38.3683C22.8716 38.4435 22.8861 38.5185 22.9181 38.5867C23.1856 39.1814 23.5017 39.753 23.8633 40.2957C23.8964 40.3458 23.9391 40.3888 23.9888 40.4223C24.0386 40.4559 24.0945 40.4793 24.1533 40.4912C24.2122 40.5031 24.2728 40.5032 24.3317 40.4917C24.3905 40.4801 24.4466 40.457 24.4965 40.4238C24.5465 40.3905 24.5894 40.3477 24.6228 40.2978C24.6562 40.2479 24.6794 40.192 24.6911 40.1331C24.7028 40.0743 24.7027 40.0136 24.691 39.9548C24.6792 39.8959 24.656 39.8399 24.6225 39.7901C24.2888 39.2891 23.9963 38.7619 23.7494 38.2128C23.713 38.1285 23.652 38.0571 23.5743 38.008C23.4966 37.9589 23.406 37.9344 23.3141 37.9378Z" fill="white"/>
<path d="M22.4758 31.555C22.363 31.5511 22.2528 31.5891 22.1665 31.6618C22.0801 31.7344 22.0239 31.8366 22.0085 31.9484C21.9196 32.5355 21.875 33.1286 21.875 33.7224C21.875 34.758 22.0111 35.7893 22.2791 36.7896C22.2936 36.8485 22.3197 36.9039 22.3558 36.9526C22.392 37.0013 22.4375 37.0422 22.4897 37.0731C22.5419 37.1039 22.5998 37.1241 22.6598 37.1323C22.7199 37.1405 22.781 37.1366 22.8396 37.121C22.8982 37.1053 22.953 37.0781 23.0009 37.0409C23.0489 37.0037 23.0889 36.9574 23.1187 36.9045C23.1484 36.8517 23.1674 36.7935 23.1744 36.7332C23.1813 36.673 23.1762 36.612 23.1593 36.5538C22.9119 35.6304 22.7864 34.6783 22.7864 33.7224C22.7864 33.1742 22.8272 32.6265 22.9092 32.0846C22.9198 32.0207 22.9166 31.9552 22.8998 31.8927C22.8831 31.8301 22.8532 31.7719 22.8122 31.7217C22.7712 31.6716 22.72 31.6309 22.662 31.6021C22.604 31.5733 22.5405 31.5573 22.4758 31.555Z" fill="white"/>
<path d="M45.0506 32.1133C44.9869 32.1143 44.9241 32.1286 44.8663 32.1553C44.8085 32.182 44.7569 32.2206 44.7148 32.2685C44.6728 32.3163 44.6413 32.3725 44.6223 32.4333C44.6034 32.4942 44.5974 32.5583 44.6047 32.6216C44.6417 32.9877 44.6609 33.3555 44.6609 33.7236C44.6609 34.9417 44.4569 36.1515 44.0583 37.3026C44.0387 37.3592 44.0305 37.4191 44.034 37.4788C44.0376 37.5386 44.0529 37.5971 44.079 37.6509C44.1052 37.7048 44.1417 37.753 44.1865 37.7927C44.2312 37.8325 44.2834 37.863 44.34 37.8826C44.3966 37.9022 44.4564 37.9104 44.5162 37.9068C44.576 37.9033 44.6344 37.8879 44.6883 37.8618C44.7421 37.8356 44.7903 37.7991 44.83 37.7543C44.8698 37.7096 44.9003 37.6574 44.9199 37.6008C45.3516 36.3538 45.5723 35.0432 45.5723 33.7236C45.5723 33.3248 45.552 32.9266 45.5118 32.5299C45.5019 32.415 45.4488 32.3082 45.3633 32.2309C45.2777 32.1536 45.1659 32.1116 45.0506 32.1133Z" fill="white"/>
<path d="M44.5716 29.0534C44.5716 29.1743 44.5236 29.2902 44.4381 29.3757C44.3526 29.4611 44.2367 29.5091 44.1159 29.5091C44.056 29.5091 43.9968 29.4973 43.9415 29.4744C43.8862 29.4515 43.836 29.418 43.7936 29.3757C43.7513 29.3334 43.7178 29.2831 43.6948 29.2278C43.6719 29.1725 43.6602 29.1132 43.6602 29.0534C43.6602 28.9935 43.6719 28.9343 43.6948 28.879C43.7177 28.8237 43.7513 28.7734 43.7936 28.7311C43.8359 28.6888 43.8862 28.6553 43.9415 28.6323C43.9968 28.6094 44.056 28.5977 44.1159 28.5977C44.1757 28.5977 44.235 28.6094 44.2903 28.6323C44.3456 28.6553 44.3958 28.6889 44.4381 28.7312C44.4804 28.7735 44.514 28.8237 44.5369 28.879C44.5598 28.9343 44.5716 28.9935 44.5716 29.0534Z" fill="white"/>
<path d="M45.1849 30.7761C45.1849 30.8359 45.1731 30.8952 45.1502 30.9505C45.1273 31.0058 45.0937 31.056 45.0514 31.0983C45.0091 31.1406 44.9588 31.1742 44.9035 31.1971C44.8482 31.22 44.789 31.2318 44.7291 31.2318C44.6083 31.2318 44.4924 31.1837 44.4069 31.0983C44.3215 31.0128 44.2734 30.8969 44.2734 30.7761C44.2734 30.6552 44.3215 30.5393 44.4069 30.4538C44.4924 30.3684 44.6083 30.3203 44.7291 30.3203C44.789 30.3203 44.8482 30.3321 44.9035 30.355C44.9588 30.3779 45.0091 30.4115 45.0514 30.4538C45.0937 30.4961 45.1273 30.5463 45.1502 30.6016C45.1731 30.6569 45.1849 30.7162 45.1849 30.7761Z" fill="white"/>
<defs>
<linearGradient id="paint0_linear_417_1526" x1="34" y1="0" x2="34" y2="68" gradientUnits="userSpaceOnUse">
<stop stop-color="white"/>
<stop offset="1" stop-color="white" stop-opacity="0"/>
</linearGradient>
<linearGradient id="paint1_linear_417_1526" x1="34" y1="0" x2="34" y2="68" gradientUnits="userSpaceOnUse">
<stop stop-color="#DCE3E7"/>
<stop offset="0.8" stop-color="#DCE3E7" stop-opacity="0"/>
</linearGradient>
<linearGradient id="paint2_linear_417_1526" x1="24.63" y1="10.5892" x2="41.4684" y2="59.9556" gradientUnits="userSpaceOnUse">
<stop stop-color="white" stop-opacity="0.3"/>
<stop offset="1" stop-color="#BAC8D1" stop-opacity="0.8"/>
</linearGradient>
</defs>
</svg>
