<svg width="68" height="68" viewBox="0 0 68 68" fill="none" xmlns="http://www.w3.org/2000/svg">
<rect x="0.499614" y="0.499614" width="67.0008" height="67.0008" rx="33.5004" fill="white" fill-opacity="0.2"/>
<rect x="0.499614" y="0.499614" width="67.0008" height="67.0008" rx="33.5004" fill="url(#paint0_linear_417_1410)"/>
<rect x="0.499614" y="0.499614" width="67.0008" height="67.0008" rx="33.5004" stroke="url(#paint1_linear_417_1410)" stroke-width="0.999228"/>
<path d="M7.49609 33.7258C7.49609 19.2396 19.2396 7.49609 33.7258 7.49609C48.2121 7.49609 59.9556 19.2396 59.9556 33.7258C59.9556 48.2121 48.2121 59.9556 33.7258 59.9556C19.2396 59.9556 7.49609 48.2121 7.49609 33.7258Z" fill="#4868CA"/>
<path d="M33.7256 7.87109C48.0048 7.87109 59.5809 19.4464 59.5811 33.7256C59.5811 48.0049 48.0049 59.5811 33.7256 59.5811C19.4464 59.5809 7.87109 48.0048 7.87109 33.7256C7.87123 19.4464 19.4464 7.87123 33.7256 7.87109Z" stroke="url(#paint2_linear_417_1410)" stroke-opacity="0.3" stroke-width="0.749421"/>
<g clip-path="url(#clip0_417_1410)">
<path fill-rule="evenodd" clip-rule="evenodd" d="M33.1673 23.5039C32.5098 23.5039 31.8667 23.5658 31.244 23.684C30.8428 23.7602 30.5819 24.1343 30.6613 24.5194C30.7407 24.9046 31.1303 25.1551 31.5316 25.0789C32.06 24.9785 32.6068 24.9258 33.1673 24.9258C37.7941 24.9258 41.5449 28.5265 41.5449 32.9683C41.5449 37.41 37.7941 41.0107 33.1673 41.0107C32.6068 41.0107 32.06 40.958 31.5316 40.8576C31.1303 40.7815 30.7407 41.0319 30.6613 41.4171C30.5819 41.8023 30.8428 42.1763 31.244 42.2525C31.8667 42.3708 32.5098 42.4326 33.1673 42.4326C38.6121 42.4326 43.026 38.1953 43.026 32.9683C43.026 27.7412 38.6121 23.5039 33.1673 23.5039ZM28.5131 26.28C28.853 26.0616 28.944 25.62 28.7165 25.2937C28.489 24.9674 28.029 24.88 27.6891 25.0985C26.6143 25.7892 25.6891 26.6774 24.9696 27.7092C24.7421 28.0355 24.8331 28.4771 25.173 28.6955C25.5128 28.9139 25.9728 28.8265 26.2004 28.5002C26.8122 27.6229 27.5992 26.8674 28.5131 26.28ZM24.9492 31.3979C25.0286 31.0127 24.7677 30.6387 24.3664 30.5625C23.9652 30.4863 23.5756 30.7368 23.4962 31.1219C23.3731 31.7197 23.3086 32.3371 23.3086 32.9683C23.3086 33.5994 23.3731 34.2169 23.4962 34.8145C23.5756 35.1998 23.9652 35.4502 24.3664 35.374C24.7677 35.2978 25.0286 34.9238 24.9492 34.5386C24.8447 34.0313 24.7897 33.5063 24.7897 32.9683C24.7897 32.4302 24.8447 31.9052 24.9492 31.3979ZM26.2004 37.4363C25.9728 37.11 25.5128 37.0226 25.173 37.241C24.8331 37.4594 24.7421 37.9011 24.9696 38.2273C25.6891 39.2591 26.6143 40.1473 27.6891 40.8381C28.029 41.0565 28.489 40.9691 28.7165 40.6428C28.944 40.3165 28.853 39.875 28.5131 39.6565C27.5992 39.0692 26.8122 38.3137 26.2004 37.4363Z" fill="white"/>
<path fill-rule="evenodd" clip-rule="evenodd" d="M33.1616 28.6461C31.3523 27.5816 29.0273 28.8315 29.0273 30.8687V35.0687C29.0273 37.1059 31.3523 38.3557 33.1616 37.2913L36.7311 35.1913C38.4598 34.1743 38.4598 31.7632 36.7311 30.7461L33.1616 28.6461Z" fill="white"/>
<path fill-rule="evenodd" clip-rule="evenodd" d="M33.1673 23.5039C32.5098 23.5039 31.8667 23.5658 31.244 23.684C30.8428 23.7602 30.5819 24.1343 30.6613 24.5194C30.7407 24.9046 31.1303 25.1551 31.5316 25.0789C32.06 24.9785 32.6068 24.9258 33.1673 24.9258C37.7941 24.9258 41.5449 28.5265 41.5449 32.9683C41.5449 37.41 37.7941 41.0107 33.1673 41.0107C32.6068 41.0107 32.06 40.958 31.5316 40.8576C31.1303 40.7815 30.7407 41.0319 30.6613 41.4171C30.5819 41.8023 30.8428 42.1763 31.244 42.2525C31.8667 42.3708 32.5098 42.4326 33.1673 42.4326C38.6121 42.4326 43.026 38.1953 43.026 32.9683C43.026 27.7412 38.6121 23.5039 33.1673 23.5039ZM28.5131 26.28C28.853 26.0616 28.944 25.62 28.7165 25.2937C28.489 24.9674 28.029 24.88 27.6891 25.0985C26.6143 25.7892 25.6891 26.6774 24.9696 27.7092C24.7421 28.0355 24.8331 28.4771 25.173 28.6955C25.5128 28.9139 25.9728 28.8265 26.2004 28.5002C26.8122 27.6229 27.5992 26.8674 28.5131 26.28ZM24.9492 31.3979C25.0286 31.0127 24.7677 30.6387 24.3664 30.5625C23.9652 30.4863 23.5756 30.7368 23.4962 31.1219C23.3731 31.7197 23.3086 32.3371 23.3086 32.9683C23.3086 33.5994 23.3731 34.2169 23.4962 34.8145C23.5756 35.1998 23.9652 35.4502 24.3664 35.374C24.7677 35.2978 25.0286 34.9238 24.9492 34.5386C24.8447 34.0313 24.7897 33.5063 24.7897 32.9683C24.7897 32.4302 24.8447 31.9052 24.9492 31.3979ZM26.2004 37.4363C25.9728 37.11 25.5128 37.0226 25.173 37.241C24.8331 37.4594 24.7421 37.9011 24.9696 38.2273C25.6891 39.2591 26.6143 40.1473 27.6891 40.8381C28.029 41.0565 28.489 40.9691 28.7165 40.6428C28.944 40.3165 28.853 39.875 28.5131 39.6565C27.5992 39.0692 26.8122 38.3137 26.2004 37.4363Z" fill="white"/>
<path fill-rule="evenodd" clip-rule="evenodd" d="M33.1616 28.6461C31.3523 27.5816 29.0273 28.8315 29.0273 30.8687V35.0687C29.0273 37.1059 31.3523 38.3557 33.1616 37.2913L36.7311 35.1913C38.4598 34.1743 38.4598 31.7632 36.7311 30.7461L33.1616 28.6461Z" fill="white"/>
</g>
<defs>
<linearGradient id="paint0_linear_417_1410" x1="34" y1="0" x2="34" y2="68" gradientUnits="userSpaceOnUse">
<stop stop-color="white"/>
<stop offset="1" stop-color="white" stop-opacity="0"/>
</linearGradient>
<linearGradient id="paint1_linear_417_1410" x1="34" y1="0" x2="34" y2="68" gradientUnits="userSpaceOnUse">
<stop stop-color="#DCE3E7"/>
<stop offset="0.8" stop-color="#DCE3E7" stop-opacity="0"/>
</linearGradient>
<linearGradient id="paint2_linear_417_1410" x1="24.63" y1="10.5892" x2="41.4684" y2="59.9556" gradientUnits="userSpaceOnUse">
<stop stop-color="white" stop-opacity="0.3"/>
<stop offset="1" stop-color="#BAC8D1" stop-opacity="0.8"/>
</linearGradient>
<clipPath id="clip0_417_1410">
<rect width="22.8693" height="21.875" fill="white" transform="translate(22.7461 22.7852)"/>
</clipPath>
</defs>
</svg>
