<svg width="68" height="68" viewBox="0 0 68 68" fill="none" xmlns="http://www.w3.org/2000/svg">
<rect x="0.499614" y="0.499614" width="67.0008" height="67.0008" rx="33.5004" fill="white" fill-opacity="0.2"/>
<rect x="0.499614" y="0.499614" width="67.0008" height="67.0008" rx="33.5004" fill="url(#paint0_linear_417_1638)"/>
<rect x="0.499614" y="0.499614" width="67.0008" height="67.0008" rx="33.5004" stroke="url(#paint1_linear_417_1638)" stroke-width="0.999228"/>
<path d="M7.49609 33.7258C7.49609 19.2396 19.2396 7.49609 33.7258 7.49609C48.2121 7.49609 59.9556 19.2396 59.9556 33.7258C59.9556 48.2121 48.2121 59.9556 33.7258 59.9556C19.2396 59.9556 7.49609 48.2121 7.49609 33.7258Z" fill="#4868CA"/>
<path d="M33.7256 7.87109C48.0048 7.87109 59.5809 19.4464 59.5811 33.7256C59.5811 48.0049 48.0049 59.5811 33.7256 59.5811C19.4464 59.5809 7.87109 48.0048 7.87109 33.7256C7.87123 19.4464 19.4464 7.87123 33.7256 7.87109Z" stroke="url(#paint2_linear_417_1638)" stroke-opacity="0.3" stroke-width="0.749421"/>
<path d="M29.0961 35.5742C28.2539 35.5742 27.4306 35.824 26.7304 36.2919C26.0301 36.7598 25.4843 37.4248 25.162 38.2029C24.8397 38.981 24.7554 39.8372 24.9197 40.6632C25.084 41.4892 25.4896 42.2479 26.0851 42.8435C26.6806 43.439 27.4394 43.8445 28.2654 44.0088C29.0914 44.1731 29.9476 44.0888 30.7257 43.7665C31.5037 43.4442 32.1688 42.8984 32.6367 42.1982C33.1046 41.4979 33.3543 40.6746 33.3543 39.8324C33.3529 38.7035 32.9038 37.6212 32.1056 36.823C31.3073 36.0247 30.225 35.5756 29.0961 35.5742ZM31.0253 38.9845L28.8036 41.2062C28.7334 41.275 28.639 41.3136 28.5407 41.3136C28.4424 41.3136 28.348 41.275 28.2778 41.2062L27.167 40.0953C27.1326 40.0611 27.1054 40.0204 27.0868 39.9756C27.0682 39.9308 27.0587 39.8828 27.0587 39.8343C27.0587 39.7858 27.0682 39.7378 27.0868 39.693C27.1054 39.6482 27.1326 39.6075 27.167 39.5733C27.2369 39.5039 27.3314 39.4649 27.4299 39.4649C27.5283 39.4649 27.6229 39.5039 27.6928 39.5733L28.5407 40.4212L30.4995 38.4624C30.5694 38.393 30.6639 38.3541 30.7624 38.3541C30.8609 38.3541 30.9554 38.393 31.0253 38.4624C31.0596 38.4967 31.0868 38.5374 31.1054 38.5822C31.124 38.627 31.1336 38.675 31.1336 38.7235C31.1336 38.772 31.124 38.82 31.1054 38.8648C31.0868 38.9096 31.0596 38.9502 31.0253 38.9845Z" fill="white"/>
<path d="M38.3539 35.5742C37.5117 35.5742 36.6884 35.824 35.9882 36.2919C35.2879 36.7598 34.7421 37.4248 34.4198 38.2029C34.0975 38.981 34.0132 39.8372 34.1775 40.6632C34.3418 41.4892 34.7474 42.2479 35.3429 42.8435C35.9384 43.439 36.6972 43.8445 37.5232 44.0088C38.3492 44.1731 39.2054 44.0888 39.9835 43.7665C40.7616 43.4442 41.4266 42.8984 41.8945 42.1982C42.3624 41.4979 42.6121 40.6746 42.6121 39.8324C42.6107 38.7035 42.1616 37.6212 41.3634 36.823C40.5651 36.0247 39.4828 35.5756 38.3539 35.5742ZM40.0979 41.0544C40.1323 41.0886 40.1595 41.1293 40.1781 41.1741C40.1967 41.2189 40.2062 41.2669 40.2062 41.3154C40.2062 41.3639 40.1967 41.4119 40.1781 41.4567C40.1595 41.5015 40.1323 41.5422 40.0979 41.5764C40.028 41.6458 39.9335 41.6847 39.835 41.6847C39.7366 41.6847 39.6421 41.6458 39.5721 41.5764L38.3539 40.3582L37.1357 41.5764C37.0658 41.6458 36.9713 41.6847 36.8728 41.6847C36.7743 41.6847 36.6798 41.6458 36.6099 41.5764C36.5756 41.5422 36.5483 41.5015 36.5298 41.4567C36.5112 41.4119 36.5016 41.3639 36.5016 41.3154C36.5016 41.2669 36.5112 41.2189 36.5298 41.1741C36.5483 41.1293 36.5756 41.0886 36.6099 41.0544L37.8318 39.8325L36.6099 38.6142C36.5756 38.58 36.5483 38.5393 36.5298 38.4945C36.5112 38.4497 36.5016 38.4017 36.5016 38.3532C36.5016 38.3047 36.5112 38.2567 36.5298 38.2119C36.5483 38.1671 36.5756 38.1264 36.6099 38.0922C36.6798 38.0228 36.7743 37.9838 36.8728 37.9838C36.9713 37.9838 37.0658 38.0228 37.1357 38.0922L38.3539 39.3103L39.5721 38.0922C39.642 38.0228 39.7365 37.9838 39.835 37.9838C39.9335 37.9838 40.028 38.0228 40.0979 38.0922C40.1323 38.1264 40.1595 38.1671 40.1781 38.2119C40.1967 38.2567 40.2062 38.3047 40.2062 38.3532C40.2062 38.4017 40.1967 38.4497 40.1781 38.4945C40.1595 38.5393 40.1323 38.58 40.0979 38.6142L38.876 39.8324L40.0979 41.0544Z" fill="white"/>
<path d="M33.7253 23.3555C30.9765 23.3585 28.3411 24.4518 26.3974 26.3955C24.4537 28.3392 23.3605 30.9745 23.3574 33.7233C23.3544 35.2721 23.7026 36.8014 24.3757 38.1963C24.7081 37.2359 25.3254 36.3998 26.1453 35.7994C26.9652 35.199 27.9487 34.8629 28.9646 34.8359C29.9805 34.809 30.9804 35.0924 31.831 35.6485C32.6816 36.2046 33.3424 37.0068 33.7253 37.9482C34.1081 37.0068 34.7689 36.2046 35.6195 35.6485C36.4701 35.0924 37.4701 34.809 38.4859 34.8359C39.5018 34.8629 40.4853 35.199 41.3052 35.7994C42.1251 36.3998 42.7425 37.2359 43.0749 38.1963C43.748 36.8014 44.0961 35.2721 44.0931 33.7233C44.0901 30.9745 42.9968 28.3392 41.0531 26.3955C39.1094 24.4518 36.4741 23.3585 33.7253 23.3555ZM33.7253 35.2044C33.3974 35.2029 33.0793 35.0932 32.8202 34.8923C32.5611 34.6915 32.3755 34.4107 32.2923 34.0936H28.1711C28.0729 34.0936 27.9787 34.0546 27.9093 33.9851C27.8398 33.9157 27.8008 33.8215 27.8008 33.7233C27.8008 33.6251 27.8398 33.5309 27.9093 33.4615C27.9787 33.392 28.0729 33.353 28.1711 33.353H32.2923C32.3589 33.0974 32.4924 32.8641 32.6792 32.6773C32.8661 32.4904 33.0993 32.3568 33.355 32.2903V26.3177C33.355 26.2195 33.394 26.1253 33.4635 26.0559C33.5329 25.9864 33.6271 25.9474 33.7253 25.9474C33.8235 25.9474 33.9177 25.9864 33.9871 26.0559C34.0565 26.1253 34.0956 26.2195 34.0956 26.3177V32.2903C34.4446 32.3803 34.7488 32.5945 34.9511 32.8928C35.1535 33.1911 35.24 33.553 35.1946 33.9105C35.1492 34.2681 34.9748 34.5968 34.7043 34.835C34.4338 35.0732 34.0857 35.2046 33.7253 35.2044Z" fill="white"/>
<path d="M33.7249 34.4655C34.1339 34.4655 34.4655 34.1339 34.4655 33.7249C34.4655 33.3159 34.1339 32.9844 33.7249 32.9844C33.3159 32.9844 32.9844 33.3159 32.9844 33.7249C32.9844 34.1339 33.3159 34.4655 33.7249 34.4655Z" fill="white"/>
<defs>
<linearGradient id="paint0_linear_417_1638" x1="34" y1="0" x2="34" y2="68" gradientUnits="userSpaceOnUse">
<stop stop-color="white"/>
<stop offset="1" stop-color="white" stop-opacity="0"/>
</linearGradient>
<linearGradient id="paint1_linear_417_1638" x1="34" y1="0" x2="34" y2="68" gradientUnits="userSpaceOnUse">
<stop stop-color="#DCE3E7"/>
<stop offset="0.8" stop-color="#DCE3E7" stop-opacity="0"/>
</linearGradient>
<linearGradient id="paint2_linear_417_1638" x1="24.63" y1="10.5892" x2="41.4684" y2="59.9556" gradientUnits="userSpaceOnUse">
<stop stop-color="white" stop-opacity="0.3"/>
<stop offset="1" stop-color="#BAC8D1" stop-opacity="0.8"/>
</linearGradient>
</defs>
</svg>
