<svg width="68" height="68" viewBox="0 0 68 68" fill="none" xmlns="http://www.w3.org/2000/svg">
<rect x="0.499614" y="0.499614" width="67.0008" height="67.0008" rx="33.5004" fill="white" fill-opacity="0.2"/>
<rect x="0.499614" y="0.499614" width="67.0008" height="67.0008" rx="33.5004" fill="url(#paint0_linear_417_1748)"/>
<rect x="0.499614" y="0.499614" width="67.0008" height="67.0008" rx="33.5004" stroke="url(#paint1_linear_417_1748)" stroke-width="0.999228"/>
<path d="M7.49609 33.7258C7.49609 19.2396 19.2396 7.49609 33.7258 7.49609C48.2121 7.49609 59.9556 19.2396 59.9556 33.7258C59.9556 48.2121 48.2121 59.9556 33.7258 59.9556C19.2396 59.9556 7.49609 48.2121 7.49609 33.7258Z" fill="#4868CA"/>
<path d="M33.7256 7.87109C48.0048 7.87109 59.5809 19.4464 59.5811 33.7256C59.5811 48.0049 48.0049 59.5811 33.7256 59.5811C19.4464 59.5809 7.87109 48.0048 7.87109 33.7256C7.87123 19.4464 19.4464 7.87123 33.7256 7.87109Z" stroke="url(#paint2_linear_417_1748)" stroke-opacity="0.3" stroke-width="0.749421"/>
<path d="M25.2073 28.6447V25.0517L28.8477 26.8482L25.2073 28.6447ZM38.8608 28.6447V25.0517L42.5011 26.8482L38.8608 28.6447ZM32.4891 27.7465V24.1523L36.1305 25.9499L32.4891 27.7465ZM30.627 43.7644C29.5985 43.6894 28.6497 43.5736 27.7805 43.4172C26.9113 43.2608 26.1604 43.0711 25.5279 42.8481C24.8953 42.6251 24.4012 42.3731 24.0455 42.0921C23.6883 41.8097 23.5098 41.506 23.5098 41.1811V32.4416C23.5098 32.0672 23.7543 31.7203 24.2434 31.4011C24.7325 31.0818 25.4128 30.8033 26.2841 30.5655C27.1555 30.3276 28.1907 30.1386 29.3898 29.9985C30.5889 29.8583 31.8978 29.7883 33.3163 29.7883C34.7349 29.7883 36.0437 29.8587 37.2428 29.9995C38.4419 30.1404 39.4772 30.3298 40.3485 30.5676C41.2199 30.8054 41.9001 31.0836 42.3892 31.4022C42.8784 31.7207 43.1225 32.0675 43.1218 32.4427V41.1811C43.1218 41.5067 42.9436 41.8107 42.5872 42.0932C42.2307 42.3756 41.7366 42.6276 41.1048 42.8492C40.473 43.0707 39.7221 43.2604 38.8522 43.4183C37.9822 43.5761 37.0334 43.6915 36.0057 43.7644V39.0586H30.627V43.7644ZM33.3163 34.0343C35.0971 34.0343 36.7641 33.8952 38.3175 33.617C39.8709 33.3388 41.0313 32.9715 41.7987 32.5149C41.5641 32.1404 40.7071 31.7692 39.2276 31.4011C37.7481 31.033 35.7777 30.8493 33.3163 30.85C30.855 30.8507 28.8849 31.0348 27.4061 31.4022C25.9273 31.7695 25.0703 32.1411 24.8351 32.517C25.601 32.9729 26.6818 33.3399 28.0774 33.6181C29.473 33.8963 31.2193 34.0343 33.3163 34.0343Z" fill="white"/>
<defs>
<linearGradient id="paint0_linear_417_1748" x1="34" y1="0" x2="34" y2="68" gradientUnits="userSpaceOnUse">
<stop stop-color="white"/>
<stop offset="1" stop-color="white" stop-opacity="0"/>
</linearGradient>
<linearGradient id="paint1_linear_417_1748" x1="34" y1="0" x2="34" y2="68" gradientUnits="userSpaceOnUse">
<stop stop-color="#DCE3E7"/>
<stop offset="0.8" stop-color="#DCE3E7" stop-opacity="0"/>
</linearGradient>
<linearGradient id="paint2_linear_417_1748" x1="24.63" y1="10.5892" x2="41.4684" y2="59.9556" gradientUnits="userSpaceOnUse">
<stop stop-color="white" stop-opacity="0.3"/>
<stop offset="1" stop-color="#BAC8D1" stop-opacity="0.8"/>
</linearGradient>
</defs>
</svg>
