<svg width="68" height="68" viewBox="0 0 68 68" fill="none" xmlns="http://www.w3.org/2000/svg">
<rect x="0.499614" y="0.499614" width="67.0008" height="67.0008" rx="33.5004" fill="white" fill-opacity="0.2"/>
<rect x="0.499614" y="0.499614" width="67.0008" height="67.0008" rx="33.5004" fill="url(#paint0_linear_417_1301)"/>
<rect x="0.499614" y="0.499614" width="67.0008" height="67.0008" rx="33.5004" stroke="url(#paint1_linear_417_1301)" stroke-width="0.999228"/>
<rect x="7.49609" y="7.49609" width="52.4595" height="52.4595" rx="26.2297" fill="#4868CA"/>
<rect x="7.8708" y="7.8708" width="51.7101" height="51.7101" rx="25.855" stroke="url(#paint2_linear_417_1301)" stroke-opacity="0.3" stroke-width="0.749421"/>
<path d="M44.0915 31.8742C44.2879 31.8742 44.4762 31.7962 44.6151 31.6573C44.754 31.5184 44.832 31.33 44.832 31.1336C44.832 30.9372 44.754 30.7489 44.6151 30.61C44.4762 30.4711 44.2879 30.3931 44.0915 30.3931H42.6104V29.2822H44.0915C44.2879 29.2822 44.4762 29.2042 44.6151 29.0653C44.754 28.9264 44.832 28.7381 44.832 28.5417C44.832 28.3453 44.754 28.1569 44.6151 28.018C44.4762 27.8791 44.2879 27.8011 44.0915 27.8011H42.54C42.3953 27.0883 42.0438 26.434 41.5295 25.9197C41.0152 25.4054 40.3609 25.054 39.6481 24.9092V23.3577C39.6481 23.1613 39.5701 22.973 39.4312 22.8341C39.2923 22.6952 39.104 22.6172 38.9076 22.6172C38.7111 22.6172 38.5228 22.6952 38.3839 22.8341C38.245 22.973 38.167 23.1613 38.167 23.3577V24.8389H37.0562V23.3577C37.0562 23.1613 36.9781 22.973 36.8392 22.8341C36.7004 22.6952 36.512 22.6172 36.3156 22.6172C36.1192 22.6172 35.9308 22.6952 35.7919 22.8341C35.6531 22.973 35.575 23.1613 35.575 23.3577V24.8389H34.4642V23.3577C34.4642 23.1613 34.3862 22.973 34.2473 22.8341C34.1084 22.6952 33.92 22.6172 33.7236 22.6172C33.5272 22.6172 33.3389 22.6952 33.2 22.8341C33.0611 22.973 32.9831 23.1613 32.9831 23.3577V24.8389H31.8722V23.3577C31.8722 23.1613 31.7942 22.973 31.6553 22.8341C31.5164 22.6952 31.3281 22.6172 31.1317 22.6172C30.9353 22.6172 30.7469 22.6952 30.608 22.8341C30.4691 22.973 30.3911 23.1613 30.3911 23.3577V24.8389H29.2803V23.3577C29.2803 23.1613 29.2023 22.973 29.0634 22.8341C28.9245 22.6952 28.7361 22.6172 28.5397 22.6172C28.3433 22.6172 28.1549 22.6952 28.0161 22.8341C27.8772 22.973 27.7992 23.1613 27.7992 23.3577V24.9092C27.0864 25.054 26.432 25.4054 25.9177 25.9197C25.4034 26.434 25.052 27.0883 24.9073 27.8011H23.3558C23.1594 27.8011 22.971 27.8791 22.8321 28.018C22.6933 28.1569 22.6152 28.3453 22.6152 28.5417C22.6152 28.7381 22.6933 28.9264 22.8321 29.0653C22.971 29.2042 23.1594 29.2822 23.3558 29.2822H24.8369V30.3931H23.3558C23.1594 30.3931 22.971 30.4711 22.8321 30.61C22.6933 30.7489 22.6152 30.9372 22.6152 31.1336C22.6152 31.33 22.6933 31.5184 22.8321 31.6573C22.971 31.7962 23.1594 31.8742 23.3558 31.8742H24.8369V32.985H23.3558C23.1594 32.985 22.971 33.063 22.8321 33.2019C22.6933 33.3408 22.6152 33.5292 22.6152 33.7256C22.6152 33.922 22.6933 34.1104 22.8321 34.2492C22.971 34.3881 23.1594 34.4661 23.3558 34.4661H24.8369V35.577H23.3558C23.1594 35.577 22.971 35.655 22.8321 35.7939C22.6933 35.9328 22.6152 36.1211 22.6152 36.3175C22.6152 36.514 22.6933 36.7023 22.8321 36.8412C22.971 36.9801 23.1594 37.0581 23.3558 37.0581H24.8369V38.1689H23.3558C23.1594 38.1689 22.971 38.247 22.8321 38.3858C22.6933 38.5247 22.6152 38.7131 22.6152 38.9095C22.6152 39.1059 22.6933 39.2943 22.8321 39.4332C22.971 39.572 23.1594 39.6501 23.3558 39.6501H24.9073C25.052 40.3628 25.4034 41.0172 25.9177 41.5315C26.432 42.0458 27.0864 42.3972 27.7992 42.542V44.0934C27.7992 44.2898 27.8772 44.4782 28.0161 44.6171C28.1549 44.756 28.3433 44.834 28.5397 44.834C28.7361 44.834 28.9245 44.756 29.0634 44.6171C29.2023 44.4782 29.2803 44.2898 29.2803 44.0934V42.6123H30.3911V44.0934C30.3911 44.2898 30.4691 44.4782 30.608 44.6171C30.7469 44.756 30.9353 44.834 31.1317 44.834C31.3281 44.834 31.5164 44.756 31.6553 44.6171C31.7942 44.4782 31.8722 44.2898 31.8722 44.0934V42.6123H32.9831V44.0934C32.9831 44.2898 33.0611 44.4782 33.2 44.6171C33.3389 44.756 33.5272 44.834 33.7236 44.834C33.92 44.834 34.1084 44.756 34.2473 44.6171C34.3862 44.4782 34.4642 44.2898 34.4642 44.0934V42.6123H35.575V44.0934C35.575 44.2898 35.6531 44.4782 35.7919 44.6171C35.9308 44.756 36.1192 44.834 36.3156 44.834C36.512 44.834 36.7004 44.756 36.8392 44.6171C36.9781 44.4782 37.0562 44.2898 37.0562 44.0934V42.6123H38.167V44.0934C38.167 44.2898 38.245 44.4782 38.3839 44.6171C38.5228 44.756 38.7111 44.834 38.9076 44.834C39.104 44.834 39.2923 44.756 39.4312 44.6171C39.5701 44.4782 39.6481 44.2898 39.6481 44.0934V42.542C40.3609 42.3972 41.0152 42.0458 41.5295 41.5315C42.0438 41.0172 42.3953 40.3628 42.54 39.6501H44.0915C44.2879 39.6501 44.4762 39.572 44.6151 39.4332C44.754 39.2943 44.832 39.1059 44.832 38.9095C44.832 38.7131 44.754 38.5247 44.6151 38.3858C44.4762 38.247 44.2879 38.1689 44.0915 38.1689H42.6104V37.0581H44.0915C44.2879 37.0581 44.4762 36.9801 44.6151 36.8412C44.754 36.7023 44.832 36.514 44.832 36.3175C44.832 36.1211 44.754 35.9328 44.6151 35.7939C44.4762 35.655 44.2879 35.577 44.0915 35.577H41.8698C41.6734 35.577 41.485 35.655 41.3461 35.7939C41.2073 35.9328 41.1292 36.1211 41.1292 36.3175V38.9354C41.1283 39.5175 40.8966 40.0754 40.485 40.487C40.0735 40.8986 39.5155 41.1302 38.9335 41.1312H28.5138C27.9317 41.1302 27.3738 40.8986 26.9622 40.487C26.5507 40.0754 26.319 39.5175 26.318 38.9354V28.5157C26.319 27.9337 26.5507 27.3758 26.9622 26.9642C27.3738 26.5526 27.9317 26.321 28.5138 26.32H38.9335C39.5155 26.321 40.0735 26.5526 40.485 26.9642C40.8966 27.3758 41.1283 27.9337 41.1292 28.5157V33.7256C41.1292 33.922 41.2073 34.1104 41.3461 34.2492C41.485 34.3881 41.6734 34.4661 41.8698 34.4661H44.0915C44.2879 34.4661 44.4762 34.3881 44.6151 34.2492C44.754 34.1104 44.832 33.922 44.832 33.7256C44.832 33.5292 44.754 33.3408 44.6151 33.2019C44.4762 33.063 44.2879 32.985 44.0915 32.985H42.6104V31.8742H44.0915Z" fill="#FBFBFB"/>
<path d="M31.9453 34.369H33.3635L32.6563 32.3398L31.9453 34.369Z" fill="#FBFBFB"/>
<path d="M38.9092 27.8008H28.5413C28.3449 27.8008 28.1566 27.8788 28.0177 28.0177C27.8788 28.1566 27.8008 28.3449 27.8008 28.5413V38.9092C27.8008 39.1056 27.8788 39.294 28.0177 39.4328C28.1566 39.5717 28.3449 39.6497 28.5413 39.6497H38.9092C39.1056 39.6497 39.294 39.5717 39.4328 39.4328C39.5717 39.294 39.6497 39.1056 39.6497 38.9092V28.5413C39.6497 28.3449 39.5717 28.1566 39.4328 28.0177C39.294 27.8788 39.1056 27.8008 38.9092 27.8008ZM35.4063 36.4616C35.3916 36.4775 35.3739 36.4902 35.3541 36.4991C35.3344 36.508 35.3132 36.5129 35.2915 36.5135H34.2548C34.1972 36.5161 34.1403 36.5007 34.0919 36.4695C34.0434 36.4384 34.0059 36.3929 33.9845 36.3394L33.6956 35.5767H31.611L31.3221 36.3505C31.3012 36.4043 31.2637 36.4501 31.2152 36.4814C31.1667 36.5126 31.1095 36.5277 31.0518 36.5246H30.0225C30.0008 36.5242 29.9795 36.5194 29.9597 36.5105C29.94 36.5016 29.9223 36.4887 29.9077 36.4727C29.8913 36.4584 29.8782 36.4408 29.8693 36.421C29.8603 36.4012 29.8558 36.3797 29.8558 36.358C29.8514 36.3335 29.8514 36.3084 29.8558 36.2839L31.7072 31.1777C31.7258 31.1087 31.7677 31.0482 31.8257 31.0064C31.8837 30.9645 31.9543 30.944 32.0257 30.9482H33.2661C33.3378 30.9445 33.4087 30.9652 33.4672 31.0069C33.5256 31.0485 33.5683 31.1088 33.5883 31.1777L35.4397 36.2839C35.4421 36.3085 35.4421 36.3333 35.4397 36.358C35.4408 36.3953 35.429 36.4319 35.4063 36.4616ZM37.5984 36.3135C37.5986 36.3658 37.5787 36.4162 37.5428 36.4542C37.5245 36.473 37.5027 36.4879 37.4785 36.4981C37.4543 36.5083 37.4284 36.5135 37.4021 36.5135H36.2617C36.2089 36.5125 36.1586 36.4911 36.1213 36.4539C36.084 36.4166 36.0627 36.3663 36.0617 36.3135V31.1333C36.0612 31.1065 36.0662 31.0798 36.0764 31.055C36.0866 31.0301 36.1017 31.0076 36.121 30.9889C36.159 30.953 36.2094 30.9331 36.2617 30.9333H37.4021C37.4281 30.9326 37.454 30.9372 37.4782 30.9467C37.5024 30.9563 37.5244 30.9706 37.5428 30.9889C37.5614 31.0079 37.5759 31.0306 37.5854 31.0554C37.595 31.0802 37.5994 31.1067 37.5984 31.1333V36.3135Z" fill="#FBFBFB"/>
<defs>
<linearGradient id="paint0_linear_417_1301" x1="34" y1="0" x2="34" y2="68" gradientUnits="userSpaceOnUse">
<stop stop-color="white"/>
<stop offset="1" stop-color="white" stop-opacity="0"/>
</linearGradient>
<linearGradient id="paint1_linear_417_1301" x1="34" y1="0" x2="34" y2="68" gradientUnits="userSpaceOnUse">
<stop stop-color="#DCE3E7"/>
<stop offset="0.8" stop-color="#DCE3E7" stop-opacity="0"/>
</linearGradient>
<linearGradient id="paint2_linear_417_1301" x1="24.63" y1="10.5892" x2="41.4684" y2="59.9556" gradientUnits="userSpaceOnUse">
<stop stop-color="white" stop-opacity="0.3"/>
<stop offset="1" stop-color="#BAC8D1" stop-opacity="0.8"/>
</linearGradient>
</defs>
</svg>
